<svg xmlns="http://www.w3.org/2000/svg" viewBox="0 0 49.25 49.25"><defs><style>.cls-1{fill:#231f20;}</style></defs><title>behance-icon</title><path class="cls-1" d="M34.31 22.16a3.67 3.67 0 0 0-3.62 3.17h6.75a3.06 3.06 0 0 0-3.13-3.17zM19 25.32h-6v5.49h5.7c.85 0 2.47-.27 2.47-2.67-.01-2.85-2.17-2.82-2.17-2.82zM24.62 0a24.62 24.62 0 1 0 24.63 24.62 24.62 24.62 0 0 0-24.63-24.62zm5.18 15.13h8.48v2.53h-8.47zm-4.28 13.27c0 6.27-6.53 6.07-6.53 6.07h-10.68v-20.55h10.69c3.25 0 5.81 1.79 5.81 5.47a3.57 3.57 0 0 1-3.13 3.91c4.13 0 3.84 5.1 3.84 5.1zm15.86-.34h-10.65a3.34 3.34 0 0 0 3.62 3.58c3.41 0 3.29-2.21 3.29-2.21h3.62c0 5.87-7 5.46-7 5.46-8.44 0-7.89-7.85-7.89-7.85s0-7.89 7.89-7.89c8.29 0 7.12 8.92 7.12 8.92zM20.45 19.71c0-2.14-1.45-2.14-1.45-2.14h-6v4.59h5.61c.99 0 1.84-.31 1.84-2.45z"/></svg>