<svg xmlns="http://www.w3.org/2000/svg" width="49.2" height="49.2" viewBox="0 0 49.2 49.2"><style type="text/css">.st0{fill:#588DCA;}</style><path class="st0" d="M24.6 0c-13.6 0-24.6 11-24.6 24.6 0 13.6 11 24.6 24.6 24.6 13.6 0 24.6-11 24.6-24.6 0-13.6-11-24.6-24.6-24.6zm12.4 19.7v.8c0 8.2-6.2 17.7-17.7 17.7-3.5 0-6.8-1-9.5-2.8.5.1 1 .1 1.5.1 2.9 0 5.6-1 7.7-2.7-2.7-.1-5-1.8-5.8-4.3.4.1.8.1 1.2.1.6 0 1.1-.1 1.6-.2-2.8-.6-5-3.1-5-6.1v-.1c.8.5 1.8.7 2.8.8-1.7-1.1-2.8-3-2.8-5.2 0-1.1.3-2.2.8-3.1 3.1 3.8 7.6 6.2 12.8 6.5-.1-.5-.2-.9-.2-1.4 0-3.4 2.8-6.2 6.2-6.2 1.8 0 3.4.8 4.5 2 1.4-.3 2.7-.8 3.9-1.5-.5 1.5-1.4 2.7-2.7 3.4 1.3-.2 2.5-.5 3.6-1-.6 1.2-1.7 2.3-2.9 3.2z"/></svg>