<?xml version="1.0" encoding="utf-8"?>
<!-- Generator: Adobe Illustrator 21.0.0, SVG Export Plug-In . SVG Version: 6.00 Build 0)  -->
<!DOCTYPE svg PUBLIC "-//W3C//DTD SVG 1.1//EN" "http://www.w3.org/Graphics/SVG/1.1/DTD/svg11.dtd">
<svg version="1.1" id="Layer_1" xmlns="http://www.w3.org/2000/svg" xmlns:xlink="http://www.w3.org/1999/xlink" x="0px" y="0px"
	 width="49.2px" height="49.2px" viewBox="0 0 49.2 49.2" enable-background="new 0 0 49.2 49.2" xml:space="preserve">
<path fill="#1EB7EB" d="M24.6,0C11,0,0,11,0,24.6c0,13.6,11,24.6,24.6,24.6c13.6,0,24.6-11,24.6-24.6C49.2,11,38.2,0,24.6,0z
	 M38.9,18.6c-1.6,9.3-10.8,17.1-13.6,18.9c-2.8,1.8-5.3-0.7-6.2-2.6c-1-2.2-4.2-13.9-5-14.9c-0.8-1-3.3,1-3.3,1l-1.2-1.6
	c0,0,5-6,8.8-6.7c4-0.8,4,6.2,5,10.1c0.9,3.8,1.6,5.9,2.4,5.9c0.8,0,2.4-2.1,4.1-5.3c1.7-3.2-0.1-6.1-3.4-4
	C27.8,11.2,40.5,9.3,38.9,18.6z"/>
</svg>
