<svg id="Layer_1" data-name="Layer 1" xmlns="http://www.w3.org/2000/svg" viewBox="0 0 159.18 76.28"><defs><style>.cls-1{font-size:20px;fill:#231f20;font-family:AGaramondPro-Regular, Adobe Garamond Pro;}.cls-2{fill:#4a5464;}</style></defs><title>wordmark</title><text class="cls-1" transform="translate(0 60.26)"><tspan xml:space="preserve">stephanie   paiement</tspan></text><path class="cls-2" d="M110.11,2.95a1,1,0,0,0-1.41-.11L105.48,5.6c-1.47,1-2.93,2.11-4.31,3.26a5,5,0,0,1-4.58,1.23,20.18,20.18,0,0,0-8.63.62c-2.22.66-2.81.4-2.84-1.76a10,10,0,0,0-.38-2.3C84,3.83,81.87,3,79.56,4.72A13.3,13.3,0,0,0,77,7.48c-1.6,2.12-3.07,4.34-4.68,6.45a12.46,12.46,0,0,1-2.59,2.51,32.42,32.42,0,0,1-.23-3.28c-.23-3.1,0-6.31-.67-9.3-1-4.19-4.7-5.06-7.83-2.15A11.77,11.77,0,0,0,59,4.27c-3,5.15-5.73,10.49-8.69,15.69-2.55,4.47-5.49,10.81-9.91,13.68-1.17.76-2.61,1.48-.73,2.52,2.25,1.25,4.07.08,5.35-1.51,2-2.53,3.73-5.34,5.57-8Q55.26,18,59.95,9.39c.94-1.71,2.28-4,4.24-4.69a8.9,8.9,0,0,1,1.24,4.61,70.55,70.55,0,0,1-.15,10.18c-.12,1.29-1.15,1.76-2.29,2.27-3.42,1.55-6.72,2.69-10.18,3.94a2.37,2.37,0,0,0-1.52,2.78,24.05,24.05,0,0,0,7,11.57c3.88,3.71,9.11,1.56,10.08-3.85a79.77,79.77,0,0,0,1.16-11.34A6.86,6.86,0,0,1,70.83,21c2.49-3.37,5.23-6.56,7.89-9.8a20.12,20.12,0,0,1,1.56-1.5,55.31,55.31,0,0,1-.44,7.07C77.43,32.35,78.22,58.32,78,74c0,1.86,1.1,2.4,2.78,2.23s1.82-1.25,1.81-2.66c-.1-14.09-.18-39.1,1.7-53.09a10.14,10.14,0,0,1,8.28-8.4,13.61,13.61,0,0,1,3.91.66.44.44,0,0,1,.24.69c-.58.76-1.51,1.55-2,2.12A30.8,30.8,0,0,0,86.59,32.7a6.2,6.2,0,0,0,.47,4A3.72,3.72,0,0,0,90,38.45,7.7,7.7,0,0,0,93.53,38c7.73-3.16,12.38-15.36,8.93-23-1.47-3.27-.79-3.34.84-4.79.25-.22.49-.45.73-.69l6-5.12A1,1,0,0,0,110.11,2.95ZM64.53,32.42a23.21,23.21,0,0,1-.82,3.73c-1.34,4.33-4.5.23-5.8-1.81-.67-1-2.35-3.15-2.41-4.43s1.35-1.46,2.66-2c1.5-.64,3-1.27,4.5-1.93a1.62,1.62,0,0,1,1.56-.1,1.55,1.55,0,0,1,.48,1.24A26.59,26.59,0,0,1,64.53,32.42Zm29.41,1.93a3,3,0,0,1-1.75.92,1.56,1.56,0,0,1-1.51-.64A3.11,3.11,0,0,1,90,32.44c.23-6.17,2.92-11.31,7.07-15.75,1.05-1.12,1.94-1,2.23.62a26.55,26.55,0,0,1,.21,3.14C99.39,25.85,98,30.68,93.94,34.35Z"/></svg>