<svg id="Layer_1" data-name="Layer 1" xmlns="http://www.w3.org/2000/svg" viewBox="0 0 96.22 46.11"><defs><style>.cls-1{font-size:12.09px;fill:#231f20;font-family:AGaramondPro-Regular, Adobe Garamond Pro;}.cls-2{fill:#4a5464;}</style></defs><title>wordmark</title><text class="cls-1" transform="translate(0 36.43)"><tspan xml:space="preserve">stephanie   paiement</tspan></text><path class="cls-2" d="M66.56,1.78a.6.6,0,0,0-.85-.07L63.76,3.38c-.89.63-1.77,1.28-2.61,2a3,3,0,0,1-2.77.74,12.2,12.2,0,0,0-5.22.37c-1.34.4-1.7.24-1.72-1.06A6.07,6.07,0,0,0,51.22,4c-.45-1.7-1.73-2.21-3.13-1.17a8,8,0,0,0-1.52,1.67c-1,1.28-1.86,2.62-2.83,3.9a7.53,7.53,0,0,1-1.57,1.52A19.6,19.6,0,0,1,42,8a36.8,36.8,0,0,0-.41-5.62C41-.2,38.79-.73,36.9,1a7.12,7.12,0,0,0-1.24,1.55c-1.84,3.11-3.46,6.34-5.25,9.48-1.54,2.7-3.32,6.53-6,8.27-.71.46-1.58.89-.44,1.52,1.36.76,2.46,0,3.23-.91,1.23-1.53,2.25-3.23,3.37-4.86q2.83-5.2,5.66-10.41c.57-1,1.38-2.42,2.56-2.84a5.38,5.38,0,0,1,.75,2.79,42.65,42.65,0,0,1-.09,6.15c-.07.78-.7,1.06-1.38,1.37-2.07.93-4.06,1.63-6.15,2.38A1.44,1.44,0,0,0,31,17.22a14.54,14.54,0,0,0,4.2,7c2.35,2.24,5.51.94,6.09-2.33A48.22,48.22,0,0,0,42,15a4.15,4.15,0,0,1,.81-2.36c1.5-2,3.16-4,4.77-5.92a12.16,12.16,0,0,1,.94-.91,33.43,33.43,0,0,1-.27,4.27c-1.45,9.45-1,25.14-1.13,34.63,0,1.12.66,1.45,1.68,1.35s1.1-.76,1.09-1.61c-.06-8.52-.11-23.64,1-32.09a6.13,6.13,0,0,1,5-5.08,8.23,8.23,0,0,1,2.36.4.27.27,0,0,1,.15.42c-.35.46-.91.94-1.23,1.28a18.62,18.62,0,0,0-4.88,10.36,3.75,3.75,0,0,0,.29,2.39,2.25,2.25,0,0,0,1.77,1.09A4.66,4.66,0,0,0,56.54,23C61.21,21.05,64,13.68,61.94,9c-.89-2-.48-2,.51-2.9l.44-.42,3.61-3.1A.6.6,0,0,0,66.56,1.78ZM39,19.6a14,14,0,0,1-.5,2.25c-.81,2.62-2.72.14-3.51-1.1-.4-.63-1.42-1.91-1.45-2.68s.81-.88,1.61-1.22l2.72-1.17a1,1,0,0,1,.94-.06.94.94,0,0,1,.29.75A16.08,16.08,0,0,1,39,19.6Zm17.78,1.17a1.81,1.81,0,0,1-1.06.56.94.94,0,0,1-.91-.39,1.88,1.88,0,0,1-.38-1.32,14.5,14.5,0,0,1,4.27-9.52c.63-.68,1.17-.57,1.35.37a16.05,16.05,0,0,1,.13,1.9C60.08,15.62,59.25,18.54,56.79,20.76Z"/></svg>