<svg id="Layer_1" data-name="Layer 1" xmlns="http://www.w3.org/2000/svg" viewBox="0 0 62.89 30.14"><defs><style>.cls-1{font-size:7.9px;fill:#231f20;font-family:AGaramondPro-Regular, Adobe Garamond Pro;}.cls-2{fill:#4a5464;}</style></defs><title>workmark2</title><text class="cls-1" transform="translate(0 23.81)"><tspan xml:space="preserve">stephanie   paiement</tspan></text><path class="cls-2" d="M43.5,1.16a.39.39,0,0,0-.56,0L41.68,2.21c-.58.41-1.16.83-1.7,1.29A2,2,0,0,1,38.16,4a8,8,0,0,0-3.41.24c-.88.26-1.11.16-1.12-.7a4,4,0,0,0-.15-.91c-.29-1.11-1.13-1.45-2-.76a5.25,5.25,0,0,0-1,1.09c-.63.84-1.21,1.71-1.85,2.55a4.92,4.92,0,0,1-1,1,12.81,12.81,0,0,1-.09-1.3,24.06,24.06,0,0,0-.26-3.67c-.39-1.66-1.86-2-3.09-.85a4.65,4.65,0,0,0-.81,1c-1.2,2-2.26,4.15-3.43,6.2-1,1.77-2.17,4.27-3.92,5.41-.46.3-1,.58-.29,1a1.58,1.58,0,0,0,2.11-.6c.81-1,1.47-2.11,2.2-3.18q1.85-3.4,3.7-6.8a3.74,3.74,0,0,1,1.68-1.85,3.52,3.52,0,0,1,.49,1.82,27.88,27.88,0,0,1-.06,4c0,.51-.45.7-.9.9-1.35.61-2.65,1.06-4,1.56a.94.94,0,0,0-.6,1.1A9.5,9.5,0,0,0,23,15.83c1.53,1.47,3.6.62,4-1.52a31.52,31.52,0,0,0,.46-4.48A2.71,2.71,0,0,1,28,8.28C29,6.95,30,5.69,31.1,4.41a8,8,0,0,1,.62-.59,21.85,21.85,0,0,1-.17,2.79c-1,6.17-.64,16.43-.74,22.64,0,.73.43.95,1.1.88s.72-.49.72-1.05c0-5.57-.07-15.45.67-21a4,4,0,0,1,3.27-3.32A5.38,5.38,0,0,1,38.11,5a.17.17,0,0,1,.1.27c-.23.3-.6.61-.8.84a12.17,12.17,0,0,0-3.19,6.77,2.45,2.45,0,0,0,.19,1.56,1.47,1.47,0,0,0,1.16.71A3,3,0,0,0,37,15c3.05-1.25,4.89-6.07,3.53-9.1-.58-1.29-.31-1.32.33-1.89l.29-.27,2.36-2A.39.39,0,0,0,43.5,1.16Zm-18,11.64a9.17,9.17,0,0,1-.32,1.47c-.53,1.71-1.78.09-2.29-.72a5.24,5.24,0,0,1-1-1.75c0-.53.53-.58,1.05-.8l1.78-.76a.64.64,0,0,1,.62,0,.61.61,0,0,1,.19.49A10.51,10.51,0,0,1,25.49,12.81Zm11.62.76a1.18,1.18,0,0,1-.69.36.62.62,0,0,1-.6-.25,1.23,1.23,0,0,1-.25-.87,9.48,9.48,0,0,1,2.79-6.22c.41-.44.77-.38.88.24a10.49,10.49,0,0,1,.08,1.24A7.24,7.24,0,0,1,37.12,13.57Z"/></svg>